<?xml version="1.0" encoding="utf-8"?>
<!-- Generator: Adobe Illustrator 16.0.0, SVG Export Plug-In . SVG Version: 6.00 Build 0)  -->
<!DOCTYPE svg PUBLIC "-//W3C//DTD SVG 1.1//EN" "http://www.w3.org/Graphics/SVG/1.1/DTD/svg11.dtd">
<svg version="1.1" id="Layer_1" xmlns="http://www.w3.org/2000/svg" xmlns:xlink="http://www.w3.org/1999/xlink" x="0px" y="0px"
	 width="566.929px" height="180.708px" viewBox="0 0 566.929 180.708" enable-background="new 0 0 566.929 180.708"
	 xml:space="preserve">
<path d="M330.764,158.688v22.021c28.753-3.251,52.58-18.907,66.659-42.005l-19.34-11.65
	C367.748,143.92,351.312,155.574,330.764,158.688z M330.773,0v10.851v11.17c20.553,3.113,36.975,14.769,47.31,31.635l19.34-11.65
	C383.344,18.913,359.518,3.251,330.773,0z M228.57,90.356c0,47.04,34.628,84.944,79.884,90.334v-22.033
	c-32.813-5.244-56.577-33.451-56.577-68.301c0-34.859,23.764-63.066,56.577-68.304V0.018C263.198,5.408,228.57,43.309,228.57,90.356
	z M544.858,38.283l16.614-14.879c-8.938-11.833-23.257-20.714-40.645-23.288v10.53v11.597
	C530.46,24.681,538.06,30.386,544.858,38.283z M467.501,135.729l-18.348,13.883c7.413,15.489,26.09,27.69,49.343,30.897v-22.128
	C485.124,155.294,474.968,147.228,467.501,135.729z M525.765,81.676l-21.074-8.188c-18.095-6.696-26.525-13.389-26.525-28.264
	c0-11.25,8.502-19.562,20.331-22.803V0.281c-25.4,3.997-43.397,20.931-43.397,45.936c0,24.049,12.402,38.43,40.165,48.596
	l23.314,8.929c16.604,6.199,25.289,15.622,25.289,29.758c0,13.367-9.44,22.422-23.039,25.299v21.892
	c27.312-3.575,46.101-21.62,46.101-48.182C566.929,106.473,552.299,91.593,525.765,81.676z M131.712,156.051l-67.264-0.009
	l-12.892,22.336h153.725l-12.883-22.318L131.712,156.051z M89.751,67.566L76.869,45.248L0,178.388h25.792l33.623-58.263
	L89.751,67.566z M153.72,133.728h25.783L102.639,0.591L89.756,22.906l30.336,52.566L153.72,133.728z"/>
</svg>
